<?xml version="1.0" standalone="no"?>
<!DOCTYPE svg PUBLIC "-//W3C//DTD SVG 20010904//EN"
 "http://www.w3.org/TR/2001/REC-SVG-20010904/DTD/svg10.dtd">
<svg version="1.0" xmlns="http://www.w3.org/2000/svg"
 width="1920.000000pt" height="1920.000000pt" viewBox="0 0 1920.000000 1920.000000"
 preserveAspectRatio="xMidYMid meet">

<g transform="translate(0.000000,1920.000000) scale(0.100000,-0.100000)"
fill="#000000" stroke="none">
<path d="M14001 15677 c-30 -170 -95 -397 -167 -579 -125 -316 -272 -561 -488
-814 -137 -159 -257 -265 -526 -467 -464 -346 -732 -571 -1034 -867 -395 -387
-652 -732 -756 -1012 l-20 -53 4 95 c9 196 100 443 245 660 28 41 49 76 47 78
-4 3 -181 -99 -301 -175 -478 -300 -923 -700 -1231 -1105 -378 -497 -619
-1085 -663 -1618 -6 -83 -9 -92 -19 -69 -43 104 -43 501 2 852 7 53 9 97 6 97
-13 0 -127 -126 -182 -201 -196 -265 -343 -654 -433 -1142 -14 -76 -25 -147
-25 -158 0 -22 18 -24 118 -9 37 5 171 23 297 40 127 17 240 33 252 35 15 4
41 42 93 136 713 1304 1828 2441 3029 3088 73 40 135 70 137 68 2 -2 -22 -21
-53 -42 -32 -21 -121 -83 -198 -138 -915 -653 -1687 -1446 -2287 -2347 -182
-273 -438 -704 -425 -716 2 -3 113 11 247 31 334 49 677 90 915 111 232 20
188 1 450 198 637 482 1194 1062 1595 1661 92 137 145 225 137 225 -2 0 -30
-16 -62 -35 -128 -77 -294 -129 -512 -162 -92 -13 -175 -17 -373 -16 -140 1
-271 6 -290 11 l-35 9 105 48 c945 439 1609 1044 2026 1850 123 238 209 454
288 728 136 470 191 1038 150 1552 -7 81 -32 277 -37 282 -2 1 -14 -57 -26
-130z"/>
<path d="M9555 11349 c-130 -63 -497 -239 -501 -239 -9 0 -692 -354 -839 -435
-153 -84 -347 -194 -740 -423 -367 -213 -608 -386 -786 -562 -130 -129 -200
-228 -236 -333 -77 -221 58 -421 347 -517 156 -51 273 -64 595 -64 302 0 352
3 765 49 118 13 332 36 475 50 143 14 442 45 665 70 956 105 1261 131 1915
161 438 20 1046 15 1245 -10 468 -59 712 -158 805 -328 26 -45 30 -64 30 -128
0 -83 -15 -130 -69 -213 -67 -105 -204 -242 -370 -370 -811 -624 -1811 -1138
-3865 -1984 l-94 -39 -57 -130 c-51 -116 -180 -445 -180 -459 0 -11 31 0 382
144 987 405 1737 758 2493 1174 783 430 1056 597 1379 840 274 207 481 417
604 612 89 142 138 311 128 438 -25 309 -232 519 -622 631 -398 114 -1183 155
-1964 101 -595 -41 -923 -79 -1848 -216 -942 -139 -1399 -178 -1927 -165 -288
7 -442 24 -534 58 -71 26 -150 102 -152 144 -7 127 45 217 218 384 342 331
1277 931 2568 1650 193 107 251 142 235 139 -3 0 -32 -13 -65 -30z"/>
<path d="M10800 8978 c-345 -20 -1623 -146 -1635 -160 -7 -9 -103 -227 -159
-360 -441 -1059 -698 -2205 -756 -3368 -12 -237 -12 -617 0 -645 l9 -20 0 20
c2 36 98 406 156 600 302 1002 709 1778 1245 2369 183 203 419 405 593 508 37
22 67 43 67 46 0 11 -229 -9 -310 -27 -170 -39 -398 -134 -541 -226 -99 -64
-69 -32 141 150 236 204 418 343 652 497 231 154 351 251 488 395 108 113 194
220 183 225 -5 2 -64 1 -133 -4z"/>
<path d="M8623 8766 c-116 -12 -214 -23 -216 -26 -10 -10 -29 -512 -26 -678 2
-94 1 -172 -3 -172 -3 0 -28 36 -55 80 -26 44 -52 80 -56 80 -20 0 -171 -378
-237 -597 -177 -583 -243 -1052 -244 -1728 -1 -566 40 -989 150 -1539 44 -219
130 -567 145 -581 8 -7 9 -1 5 20 -23 118 -34 1114 -16 1476 38 770 149 1526
321 2187 123 474 283 949 450 1336 38 87 69 160 69 162 0 7 -71 2 -287 -20z"/>
<path d="M7420 5406 c-491 -223 -1115 -532 -1384 -687 -497 -284 -800 -544
-887 -761 -33 -82 -31 -187 5 -258 74 -143 260 -251 517 -301 171 -33 389 -42
712 -29 161 6 339 15 397 21 198 18 675 85 930 129 25 4 -143 8 -386 9 -1064
3 -1660 81 -1825 240 -44 42 -49 52 -49 90 0 170 301 383 880 621 96 40 274
116 395 170 301 134 450 197 730 311 l240 98 -3 78 c-14 333 -17 368 -32 370
-8 1 -116 -44 -240 -101z"/>
</g>
</svg>
