<svg width="334" height="396" viewBox="0 0 334 396" fill="none" xmlns="http://www.w3.org/2000/svg">
<path d="M265.296 2.60976C264.625 6.02218 263.173 10.5788 261.565 14.2321C258.772 20.5752 255.487 25.4931 250.662 30.5716C247.601 33.7632 244.92 35.8909 238.91 39.9457C228.543 46.891 222.555 51.4074 215.808 57.349C206.983 65.1173 201.241 72.0425 198.917 77.663L198.471 78.7269L198.56 76.8199C198.761 72.8856 200.794 67.9276 204.034 63.5717C204.659 62.7487 205.128 62.0461 205.084 62.006C204.994 61.9458 201.04 63.9932 198.359 65.5188C187.679 71.5407 177.737 79.5699 170.856 87.6995C162.41 97.6759 157.026 109.479 156.043 120.178C155.909 121.844 155.842 122.025 155.618 121.563C154.658 119.475 154.658 111.506 155.663 104.461C155.82 103.397 155.864 102.513 155.797 102.513C155.507 102.513 152.96 105.043 151.731 106.548C147.352 111.868 144.068 119.676 142.057 129.472C141.744 130.997 141.498 132.422 141.498 132.643C141.498 133.085 141.9 133.125 144.135 132.824C144.961 132.723 147.955 132.362 150.77 132.021C153.608 131.68 156.132 131.358 156.4 131.318C156.736 131.238 157.316 130.475 158.478 128.588C174.408 102.413 199.32 79.59 226.152 66.6027C227.783 65.7998 229.169 65.1976 229.213 65.2378C229.258 65.2779 228.722 65.6593 228.029 66.0808C227.314 66.5024 225.326 67.7469 223.605 68.8509C203.162 81.9586 185.914 97.8766 172.509 115.962C168.443 121.442 162.723 130.094 163.014 130.335C163.058 130.395 165.538 130.114 168.532 129.712C175.994 128.729 183.658 127.906 188.975 127.484C194.159 127.083 193.175 127.464 199.029 123.51C213.261 113.835 225.706 102.192 234.665 90.1685C236.72 87.4185 237.904 85.6521 237.726 85.6521C237.681 85.6521 237.055 85.9733 236.34 86.3546C233.481 87.9003 229.772 88.9441 224.901 89.6065C222.846 89.8674 220.991 89.9477 216.568 89.9277C213.44 89.9076 210.513 89.8072 210.088 89.7068L209.306 89.5262L211.652 88.5627C232.766 79.7506 247.601 67.6064 256.917 51.4275C259.665 46.6501 261.587 42.3143 263.352 36.8143C266.39 27.3799 267.619 15.9784 266.703 5.66087C266.547 4.03494 265.988 0.100616 265.877 0.000259399C265.832 -0.0198212 265.564 1.14442 265.296 2.60976Z" fill="white"/>
<path d="M165.963 89.486C163.058 90.7506 154.859 94.2835 154.769 94.2835C154.568 94.2835 139.309 101.389 136.024 103.015C132.606 104.701 128.272 106.909 119.491 111.506C111.292 115.782 105.907 119.254 101.93 122.787C99.026 125.377 97.4621 127.364 96.6578 129.472C94.9374 133.908 97.9536 137.922 104.41 139.849C107.896 140.873 110.51 141.134 117.704 141.134C124.451 141.134 125.568 141.074 134.796 140.15C137.432 139.89 142.213 139.428 145.408 139.147C148.603 138.866 155.283 138.244 160.266 137.742C181.625 135.634 188.439 135.112 203.051 134.51C212.837 134.108 226.42 134.209 230.867 134.711C241.323 135.895 246.774 137.882 248.852 141.295C249.433 142.198 249.522 142.579 249.522 143.864C249.522 145.53 249.187 146.474 247.981 148.14C246.484 150.247 243.423 152.997 239.714 155.567C221.595 168.092 199.253 178.41 153.362 195.392L151.262 196.174L149.988 198.784C148.849 201.112 145.967 207.716 145.967 207.998C145.967 208.218 146.659 207.998 154.501 205.107C176.553 196.977 193.31 189.892 210.2 181.541C227.694 172.91 233.793 169.558 241.01 164.68C247.132 160.525 251.756 156.309 254.504 152.395C256.493 149.545 257.588 146.152 257.364 143.603C256.806 137.4 252.181 133.185 243.467 130.937C234.575 128.649 217.037 127.826 199.588 128.91C186.294 129.733 178.966 130.495 158.3 133.245C137.253 136.036 127.043 136.818 115.246 136.557C108.812 136.417 105.371 136.076 103.316 135.393C101.729 134.871 99.9644 133.346 99.9197 132.503C99.7633 129.953 100.925 128.147 104.79 124.795C112.431 118.15 133.321 106.107 162.165 91.674C166.477 89.5262 167.773 88.8236 167.415 88.8838C167.348 88.8838 166.7 89.1448 165.963 89.486Z" fill="white"/>
<path d="M193.779 137.079C186.071 137.481 157.518 140.01 157.249 140.291C157.093 140.472 154.948 144.848 153.697 147.517C143.844 168.775 138.102 191.778 136.806 215.123C136.538 219.881 136.538 227.509 136.806 228.071L137.008 228.472V228.071C137.052 227.348 139.197 219.921 140.493 216.027C147.24 195.914 156.333 180.337 168.309 168.474C172.397 164.399 177.67 160.344 181.558 158.276C182.384 157.835 183.055 157.413 183.055 157.353C183.055 157.132 177.938 157.534 176.129 157.895C172.33 158.678 167.236 160.585 164.041 162.432C161.83 163.716 162.5 163.074 167.192 159.421C172.464 155.326 176.531 152.536 181.759 149.444C186.92 146.353 189.601 144.406 192.662 141.515C195.075 139.247 196.996 137.099 196.75 136.999C196.639 136.959 195.32 136.979 193.779 137.079Z" fill="white"/>
<path d="M145.14 141.335C142.548 141.576 140.359 141.797 140.314 141.857C140.091 142.057 139.666 152.134 139.733 155.466C139.778 157.353 139.756 158.919 139.666 158.919C139.599 158.919 139.041 158.196 138.437 157.313C137.857 156.43 137.276 155.707 137.186 155.707C136.739 155.707 133.366 163.295 131.891 167.691C127.937 179.393 126.462 188.808 126.44 202.377C126.417 213.738 127.333 222.229 129.791 233.27C130.774 237.666 132.696 244.651 133.031 244.932C133.209 245.073 133.232 244.952 133.142 244.531C132.629 242.162 132.383 222.169 132.785 214.903C133.634 199.446 136.114 184.271 139.957 171.003C142.705 161.488 146.28 151.953 150.011 144.185C150.86 142.439 151.552 140.974 151.552 140.933C151.552 140.793 149.966 140.893 145.14 141.335Z" fill="white"/>
<path d="M118.263 208.78C107.293 213.257 93.3512 219.459 87.3411 222.571C76.2371 228.271 69.4675 233.49 67.5237 237.846C66.7864 239.492 66.8311 241.6 67.6354 243.025C69.2888 245.895 73.4444 248.063 79.1863 249.067C83.0068 249.729 87.8774 249.91 95.0938 249.649C98.6909 249.529 102.668 249.348 103.964 249.228C108.387 248.866 119.045 247.521 124.742 246.638C125.3 246.558 121.547 246.478 116.118 246.458C92.3458 246.397 79.0299 244.832 75.3435 241.64C74.3604 240.797 74.2487 240.596 74.2487 239.833C74.2487 236.421 80.9737 232.145 93.9097 227.368C96.0545 226.565 100.031 225.04 102.735 223.956C109.46 221.266 112.789 220.001 119.045 217.713L124.407 215.746L124.34 214.18C124.027 207.496 123.96 206.793 123.625 206.753C123.446 206.733 121.033 207.636 118.263 208.78Z" fill="white"/>
<path d="M20.6055 300.906V372H6.39648V300.906H20.6055ZM45.5566 330.447V372H31.8359V319.168H44.6777L45.5566 330.447ZM43.5059 343.777L39.8438 343.875C39.7786 339.904 40.153 336.339 40.9668 333.182C41.8132 330.024 43.0013 327.339 44.5312 325.125C46.0938 322.879 47.9492 321.17 50.0977 319.998C52.2786 318.794 54.7038 318.191 57.373 318.191C59.4238 318.191 61.2956 318.549 62.9883 319.266C64.7135 319.982 66.1947 321.121 67.4316 322.684C68.6686 324.246 69.6289 326.329 70.3125 328.934C70.9961 331.505 71.3379 334.663 71.3379 338.406V372H57.6172V338.309C57.6172 336.03 57.3893 334.272 56.9336 333.035C56.4779 331.766 55.7943 330.887 54.8828 330.398C53.9714 329.878 52.832 329.617 51.4648 329.617C50.1628 329.617 49.0072 329.992 47.998 330.74C46.9889 331.456 46.1426 332.449 45.459 333.719C44.8079 334.988 44.3034 336.486 43.9453 338.211C43.6198 339.936 43.4733 341.792 43.5059 343.777ZM95.0195 296.951V372H81.3477V296.951H95.0195ZM122.803 319.168L104.199 345.438L93.0176 357.986L88.1836 347.586L96.7773 335.037L106.494 319.168H122.803ZM108.545 372L97.0215 347.732L106.445 339.041L124.219 372H108.545ZM167.236 300.906V372H152.93V300.906H167.236ZM189.502 331.131V342.947H163.623V331.131H189.502ZM192.236 300.906V312.771H163.623V300.906H192.236ZM214.258 297V372H200.537V297H214.258ZM223.535 347.391V343.826C223.535 339.692 224.023 336.03 225 332.84C226.009 329.65 227.441 326.98 229.297 324.832C231.152 322.651 233.382 321.007 235.986 319.9C238.623 318.761 241.569 318.191 244.824 318.191C248.112 318.191 251.058 318.761 253.662 319.9C256.299 321.007 258.545 322.651 260.4 324.832C262.288 326.98 263.737 329.65 264.746 332.84C265.755 336.03 266.26 339.692 266.26 343.826V347.391C266.26 351.492 265.755 355.138 264.746 358.328C263.737 361.518 262.288 364.204 260.4 366.385C258.545 368.566 256.315 370.21 253.711 371.316C251.107 372.423 248.177 372.977 244.922 372.977C241.667 372.977 238.721 372.423 236.084 371.316C233.48 370.21 231.234 368.566 229.346 366.385C227.458 364.204 226.009 361.518 225 358.328C224.023 355.138 223.535 351.492 223.535 347.391ZM237.207 343.826V347.391C237.207 349.832 237.37 351.948 237.695 353.738C238.053 355.529 238.558 357.01 239.209 358.182C239.893 359.354 240.706 360.216 241.65 360.77C242.594 361.323 243.685 361.6 244.922 361.6C246.159 361.6 247.266 361.323 248.242 360.77C249.219 360.216 250.016 359.354 250.635 358.182C251.286 357.01 251.758 355.529 252.051 353.738C252.376 351.948 252.539 349.832 252.539 347.391V343.826C252.539 341.45 252.36 339.367 252.002 337.576C251.644 335.753 251.139 334.272 250.488 333.133C249.837 331.961 249.023 331.082 248.047 330.496C247.103 329.878 246.029 329.568 244.824 329.568C243.62 329.568 242.546 329.878 241.602 330.496C240.69 331.082 239.893 331.961 239.209 333.133C238.558 334.272 238.053 335.753 237.695 337.576C237.37 339.367 237.207 341.45 237.207 343.826ZM287.305 358.084L296.533 319.168H305.127L303.027 334.988L293.945 372H286.768L287.305 358.084ZM284.668 319.168L290.967 357.986L290.918 372H282.52L271.533 319.168H284.668ZM312.061 357.352L318.164 319.168H331.396L320.361 372H311.963L312.061 357.352ZM306.299 319.168L315.527 357.791L316.162 372H308.984L299.902 335.086L297.852 319.168H306.299Z" fill="white"/>
</svg>
