<svg width="200" height="250" viewBox="0 0 200 250" fill="none" xmlns="http://www.w3.org/2000/svg">
<path d="M198.296 2.60975C197.625 6.02217 196.173 10.5788 194.565 14.2321C191.772 20.5752 188.487 25.4931 183.662 30.5715C180.601 33.7632 177.92 35.8909 171.91 39.9457C161.543 46.891 155.555 51.4074 148.808 57.349C139.983 65.1173 134.241 72.0425 131.917 77.663L131.471 78.7269L131.56 76.8199C131.761 72.8856 133.794 67.9275 137.034 63.5717C137.659 62.7487 138.128 62.0461 138.084 62.006C137.994 61.9458 134.04 63.9932 131.359 65.5188C120.679 71.5407 110.737 79.5699 103.856 87.6995C95.4105 97.6759 90.026 109.479 89.043 120.178C88.9089 121.844 88.8419 122.024 88.6185 121.563C87.6578 119.475 87.6578 111.506 88.6632 104.461C88.8196 103.397 88.8642 102.513 88.7972 102.513C88.5068 102.513 85.9598 105.043 84.731 106.548C80.3519 111.868 77.0676 119.676 75.0568 129.472C74.7441 130.997 74.4983 132.422 74.4983 132.643C74.4983 133.085 74.9004 133.125 77.1347 132.824C77.9613 132.723 80.9551 132.362 83.7702 132.021C86.6077 131.68 89.1323 131.358 89.4004 131.318C89.7356 131.238 90.3165 130.475 91.4783 128.588C107.408 102.413 132.32 79.59 159.152 66.6027C160.783 65.7998 162.169 65.1976 162.213 65.2378C162.258 65.2779 161.722 65.6593 161.029 66.0808C160.314 66.5024 158.326 67.7469 156.605 68.8509C136.162 81.9586 118.914 97.8766 105.509 115.962C101.443 121.442 95.7233 130.094 96.0137 130.335C96.0584 130.395 98.5384 130.114 101.532 129.712C108.994 128.729 116.658 127.906 121.975 127.484C127.159 127.083 126.175 127.464 132.029 123.51C146.261 113.835 158.706 102.192 167.665 90.1685C169.72 87.4185 170.904 85.6521 170.726 85.6521C170.681 85.6521 170.055 85.9732 169.34 86.3546C166.481 87.9003 162.772 88.9441 157.901 89.6065C155.846 89.8674 153.991 89.9477 149.568 89.9276C146.44 89.9076 143.513 89.8072 143.088 89.7068L142.306 89.5262L144.652 88.5627C165.766 79.7506 180.601 67.6064 189.917 51.4275C192.665 46.6501 194.587 42.3143 196.352 36.8143C199.39 27.3799 200.619 15.9784 199.703 5.66086C199.547 4.03493 198.988 0.100609 198.877 0.00025177C198.832 -0.0198288 198.564 1.14442 198.296 2.60975Z" fill="white"/>
<path d="M98.9629 89.486C96.0584 90.7506 87.8588 94.2835 87.7695 94.2835C87.5684 94.2835 72.3088 101.389 69.0245 103.015C65.6062 104.701 61.2718 106.909 52.4914 111.506C44.2918 115.782 38.9074 119.254 34.9305 122.787C32.026 125.377 30.4621 127.364 29.6578 129.472C27.9374 133.908 30.9536 137.922 37.4105 139.849C40.8958 140.873 43.5099 141.134 50.704 141.134C57.4513 141.134 58.5684 141.074 67.7957 140.151C70.432 139.89 75.2132 139.428 78.4082 139.147C81.6031 138.866 88.2833 138.244 93.2656 137.742C114.625 135.634 121.439 135.112 136.051 134.51C145.837 134.109 159.42 134.209 163.867 134.711C174.323 135.895 179.774 137.882 181.852 141.295C182.433 142.198 182.522 142.579 182.522 143.864C182.522 145.53 182.187 146.474 180.981 148.14C179.484 150.247 176.423 152.997 172.714 155.567C154.595 168.092 132.253 178.41 86.3619 195.392L84.2618 196.174L82.9883 198.784C81.8488 201.112 78.9667 207.716 78.9667 207.998C78.9667 208.218 79.6593 207.998 87.5014 205.107C109.553 196.977 126.31 189.892 143.2 181.541C160.694 172.91 166.793 169.558 174.01 164.68C180.132 160.525 184.756 156.309 187.504 152.395C189.493 149.545 190.588 146.152 190.364 143.603C189.806 137.4 185.181 133.185 176.467 130.937C167.575 128.649 150.037 127.826 132.588 128.91C119.294 129.733 111.966 130.495 91.2995 133.245C70.2533 136.036 60.043 136.818 48.2464 136.557C41.8119 136.417 38.3712 136.076 36.3157 135.393C34.7294 134.871 32.9644 133.346 32.9197 132.503C32.7633 129.953 33.9251 128.147 37.7903 124.795C45.4313 118.15 66.3211 106.107 95.1647 91.674C99.4767 89.5262 100.773 88.8236 100.415 88.8839C100.348 88.8839 99.7001 89.1448 98.9629 89.486Z" fill="white"/>
<path d="M126.779 137.079C119.071 137.481 90.5176 140.01 90.2495 140.291C90.0931 140.472 87.9482 144.848 86.6971 147.517C76.8442 168.775 71.1023 191.778 69.8065 215.123C69.5384 219.881 69.5384 227.509 69.8065 228.071L70.0075 228.472V228.071C70.0522 227.348 72.1971 219.921 73.4929 216.027C80.2402 195.914 89.3334 180.337 101.309 168.474C105.397 164.399 110.67 160.344 114.558 158.276C115.384 157.835 116.055 157.413 116.055 157.353C116.055 157.132 110.938 157.534 109.129 157.895C105.33 158.678 100.236 160.585 97.0415 162.432C94.8296 163.716 95.4998 163.074 100.192 159.421C105.464 155.326 109.531 152.536 114.759 149.444C119.92 146.353 122.601 144.406 125.662 141.515C128.075 139.247 129.996 137.099 129.75 136.999C129.639 136.959 128.32 136.979 126.779 137.079Z" fill="white"/>
<path d="M78.1401 141.335C75.5484 141.576 73.3589 141.797 73.3142 141.857C73.0908 142.057 72.6663 152.134 72.7333 155.466C72.778 157.353 72.7557 158.919 72.6663 158.919C72.5993 158.919 72.0407 158.196 71.4375 157.313C70.8566 156.43 70.2757 155.707 70.1863 155.707C69.7395 155.707 66.3658 163.295 64.8912 167.691C60.9367 179.393 59.4621 188.808 59.4398 202.377C59.4174 213.738 60.3335 222.229 62.7911 233.27C63.7741 237.666 65.6956 244.651 66.0307 244.932C66.2094 245.073 66.2318 244.952 66.1424 244.531C65.6285 242.162 65.3828 222.169 65.7849 214.903C66.6339 199.446 69.1139 184.271 72.9567 171.003C75.7048 161.488 79.2795 151.953 83.0107 144.185C83.8597 142.439 84.5523 140.974 84.5523 140.933C84.5523 140.793 82.966 140.893 78.1401 141.335Z" fill="white"/>
<path d="M51.2626 208.78C40.2926 213.257 26.3512 219.459 20.3411 222.571C9.23714 228.271 2.46749 233.49 0.523733 237.846C-0.213555 239.492 -0.168871 241.6 0.635443 243.025C2.28876 245.895 6.44438 248.063 12.1863 249.067C16.0068 249.729 20.8774 249.91 28.0938 249.649C31.6909 249.529 35.6678 249.348 36.9636 249.228C41.3874 248.866 52.0445 247.521 57.7418 246.638C58.3003 246.558 54.5468 246.478 49.1177 246.458C25.3458 246.397 12.0299 244.832 8.34346 241.64C7.3604 240.797 7.24869 240.596 7.24869 239.833C7.24869 236.421 13.9737 232.145 26.9097 227.368C29.0545 226.565 33.0314 225.04 35.7348 223.956C42.4598 221.266 45.7888 220.001 52.0445 217.713L57.4066 215.746L57.3396 214.18C57.0268 207.496 56.9598 206.793 56.6247 206.753C56.4459 206.733 54.033 207.636 51.2626 208.78Z" fill="white"/>
</svg>
